<?xml version="1.0" encoding="UTF-8" ?>
<!DOCTYPE svg PUBLIC "-//W3C//DTD SVG 1.1//EN" "http://www.w3.org/Graphics/SVG/1.1/DTD/svg11.dtd">
<svg width="33pt" height="47pt" viewBox="0 0 33 47" version="1.1" xmlns="http://www.w3.org/2000/svg">
<g id="#ffe13eff">
<path fill="#ffe13e" opacity="1.00" d=" M 15.21 0.00 L 17.20 0.00 C 25.44 0.34 32.41 7.52 33.00 15.66 L 33.00 17.24 C 32.35 22.35 29.86 26.95 27.40 31.38 C 24.27 36.77 20.96 42.08 17.12 47.00 L 15.84 47.00 C 9.49 37.91 2.49 28.63 0.00 17.63 L 0.00 15.89 C 0.44 7.84 7.14 0.73 15.21 0.00 M 14.34 7.45 C 7.54 8.69 4.36 17.88 9.06 22.99 C 13.46 28.79 23.71 26.87 25.70 19.86 C 28.32 13.06 21.29 5.54 14.34 7.45 Z" />
</g>
</svg>
