<?xml version="1.0" encoding="UTF-8" ?>
<!DOCTYPE svg PUBLIC "-//W3C//DTD SVG 1.1//EN" "http://www.w3.org/Graphics/SVG/1.1/DTD/svg11.dtd">
<svg width="200pt" height="200pt" viewBox="0 0 200 200" version="1.1" xmlns="http://www.w3.org/2000/svg">
<g id="#ffffffff">
<path fill="#ffffff" opacity="1.00" d=" M 127.50 9.53 C 131.75 3.74 139.46 0.77 146.50 2.24 C 153.50 3.61 159.45 9.24 161.10 16.19 C 163.00 23.42 160.13 31.67 154.02 36.03 C 150.66 38.55 146.46 39.33 142.48 40.32 C 139.76 51.08 136.73 61.75 133.96 72.50 C 138.07 74.73 142.15 77.18 145.34 80.67 C 153.54 89.22 156.77 102.18 153.43 113.56 C 151.87 119.55 148.25 124.70 144.14 129.21 C 151.77 140.07 159.52 150.85 167.16 161.72 C 171.89 160.91 177.00 160.23 181.51 162.36 C 190.34 165.99 195.41 176.94 191.94 185.94 C 189.14 194.62 179.45 200.23 170.52 198.34 C 161.24 196.86 154.28 187.57 155.06 178.28 C 155.44 174.27 157.43 170.71 159.19 167.18 C 151.44 156.47 143.93 145.60 136.16 134.90 C 131.95 136.55 127.62 138.11 123.06 138.34 C 114.49 139.06 105.69 136.42 99.01 131.00 C 95.57 128.30 92.95 124.77 90.28 121.35 C 76.02 127.04 61.74 132.71 47.45 138.34 C 47.14 141.78 47.02 145.35 45.58 148.56 C 43.00 154.36 37.28 158.65 30.97 159.44 C 24.45 160.39 17.55 157.68 13.49 152.48 C 7.88 145.61 8.10 134.70 14.15 128.17 C 18.98 122.59 27.20 120.39 34.19 122.72 C 38.00 123.91 41.00 126.67 43.92 129.26 C 58.25 123.73 72.45 117.88 86.79 112.38 C 86.14 107.60 85.55 102.70 86.64 97.93 C 88.74 86.05 97.65 75.75 109.05 71.85 C 114.04 69.97 119.43 69.89 124.70 69.81 C 127.30 58.98 130.52 48.32 133.14 37.50 C 130.75 35.38 128.21 33.30 126.52 30.54 C 122.59 24.20 123.00 15.48 127.50 9.53 M 138.61 12.58 C 134.30 14.53 132.36 20.18 134.30 24.45 C 136.06 28.97 141.77 31.32 146.20 29.36 C 150.91 27.58 153.46 21.56 151.13 17.02 C 149.16 12.33 143.10 10.30 138.61 12.58 M 113.52 80.60 C 107.93 82.20 102.96 85.88 99.80 90.77 C 95.10 97.76 94.63 107.26 98.21 114.82 C 102.75 124.56 114.14 130.53 124.72 128.42 C 134.28 126.81 142.40 119.08 144.42 109.59 C 146.90 99.45 141.89 88.20 132.88 83.02 C 127.14 79.55 119.94 78.87 113.52 80.60 M 24.50 132.36 C 20.39 134.10 18.03 139.19 19.51 143.43 C 20.60 147.14 24.22 149.85 28.07 149.96 C 32.00 150.10 35.86 147.43 37.05 143.67 C 38.52 139.71 36.71 134.88 33.05 132.81 C 30.48 131.29 27.21 131.09 24.50 132.36 M 171.33 170.98 C 167.41 172.02 164.59 175.97 164.92 180.03 C 164.78 184.01 167.78 187.60 171.54 188.64 C 176.07 190.08 181.41 187.20 182.76 182.66 C 183.48 179.93 183.25 176.81 181.59 174.45 C 179.42 171.21 175.01 169.81 171.33 170.98 Z" />
</g>
</svg>
